<svg xmlns="http://www.w3.org/2000/svg" width="40" height="40" viewBox="0 0 40 40">
  <defs>
    <linearGradient id="grad" x1="0" y1="0" x2="0" y2="1">
      <stop offset="0%" stop-color="#60a5fa"/>
      <stop offset="100%" stop-color="#34d399"/>
    </linearGradient>
  </defs>
  <rect width="40" height="40" rx="8" fill="#1e293b"/>
  <path d="M6,14 C10,9 14,9 18,14 C22,19 26,19 30,14 L34,10" stroke="#60a5fa" stroke-width="3" stroke-linecap="round" fill="none" opacity="0.5"/>
  <path d="M6,21 C10,16 14,16 18,21 C22,26 26,26 30,21 L34,17" stroke="url(#grad)" stroke-width="3.5" stroke-linecap="round" fill="none"/>
  <path d="M6,28 C10,23 14,23 18,28 C22,33 26,33 30,28 L34,24" stroke="#34d399" stroke-width="3" stroke-linecap="round" fill="none" opacity="0.5"/>
  <path d="M34,4.5 L35,7 L37.5,8 L35,9 L34,11.5 L33,9 L30.5,8 L33,7 Z" fill="#f0f9ff"/>
</svg>
